HIERARCHY
ROOT Hips
{
	OFFSET 0.000000 0.000000 0.000000
	CHANNELS 6 Xposition Yposition Zposition Xrotation Yrotation Zrotation
	JOINT Thigh.L
	{
		OFFSET 0.053547 0.029862 -0.090270
		CHANNELS 3 Xrotation Yrotation Zrotation
		JOINT Shin.L
		{
			OFFSET 0.052281 0.015662 -0.400591
			CHANNELS 3 Xrotation Yrotation Zrotation
			JOINT Foot.L
			{
				OFFSET -0.040988 0.031685 -0.419947
				CHANNELS 3 Xrotation Yrotation Zrotation
				JOINT Toe.L
				{
					OFFSET 0.044187 -0.116689 -0.061872
					CHANNELS 3 Xrotation Yrotation Zrotation
					End Site
					{
						OFFSET 0.000000 0.050000 0.000000
					}
				}
			}
		}
	}
	JOINT Thigh.R
	{
		OFFSET -0.058781 0.027268 -0.100410
		CHANNELS 3 Xrotation Yrotation Zrotation
		JOINT Shin.R
		{
			OFFSET -0.041897 0.020952 -0.384746
			CHANNELS 3 Xrotation Yrotation Zrotation
			JOINT Foot.R
			{
				OFFSET 0.015470 0.020418 -0.428490
				CHANNELS 3 Xrotation Yrotation Zrotation
				JOINT Toe.R
				{
					OFFSET -0.036733 -0.117491 -0.061980
					CHANNELS 3 Xrotation Yrotation Zrotation
					End Site
					{
						OFFSET 0.000000 0.050000 0.000000
					}
				}
			}
		}
	}
	JOINT Spine
	{
		OFFSET -0.001989 0.019327 0.106807
		CHANNELS 3 Xrotation Yrotation Zrotation
		JOINT Spine.2
		{
			OFFSET 0.006566 0.002641 0.129990
			CHANNELS 3 Xrotation Yrotation Zrotation
			JOINT Chest
			{
				OFFSET -0.010253 -0.023810 0.048201
				CHANNELS 3 Xrotation Yrotation Zrotation
				JOINT Neck
				{
					OFFSET -0.009367 0.029528 0.161676
					CHANNELS 3 Xrotation Yrotation Zrotation
					JOINT Head
					{
						OFFSET 0.022077 -0.022581 0.166060
						CHANNELS 3 Xrotation Yrotation Zrotation
						End Site
						{
							OFFSET 0.000000 0.050000 0.000000
						}
					}
				}
				JOINT Clavicle.L
				{
					OFFSET 0.042862 0.008531 0.082558
					CHANNELS 3 Xrotation Yrotation Zrotation
					JOINT UpperArm.L
					{
						OFFSET 0.103844 0.014641 0.059772
						CHANNELS 3 Xrotation Yrotation Zrotation
						JOINT ForeArm.L
						{
							OFFSET 0.257022 0.035001 -0.073727
							CHANNELS 3 Xrotation Yrotation Zrotation
							JOINT Hand.L
							{
								OFFSET 0.254631 0.006198 0.021010
								CHANNELS 3 Xrotation Yrotation Zrotation
								JOINT Thumb1.L
								{
									OFFSET 0.154558 0.002910 0.009865
									CHANNELS 3 Xrotation Yrotation Zrotation
									JOINT Thumb2.L
									{
										OFFSET 0.029890 0.000727 0.002466
										CHANNELS 3 Xrotation Yrotation Zrotation
										End Site
										{
											OFFSET 0.024908 0.000606 0.002055
										}
									}
								}
								JOINT Index1.L
								{
									OFFSET 0.137558 0.002910 0.009865
									CHANNELS 3 Xrotation Yrotation Zrotation
									JOINT Index2.L
									{
										OFFSET 0.029890 0.000727 0.002466
										CHANNELS 3 Xrotation Yrotation Zrotation
										JOINT Index3.L
										{
											OFFSET 0.021919 0.000533 0.001809
											CHANNELS 3 Xrotation Yrotation Zrotation
											End Site
											{
												OFFSET 0.017934 0.000436 0.001480
											}
										}
									}
								}
								JOINT Middle1.L
								{
									OFFSET 0.119558 0.002910 0.009865
									CHANNELS 3 Xrotation Yrotation Zrotation
									JOINT Middle2.L
									{
										OFFSET 0.030886 0.000752 0.002548
										CHANNELS 3 Xrotation Yrotation Zrotation
										JOINT Middle3.L
										{
											OFFSET 0.021919 0.000533 0.001809
											CHANNELS 3 Xrotation Yrotation Zrotation
											End Site
											{
												OFFSET 0.017934 0.000436 0.001480
											}
										}
									}
								}
								JOINT Ring1.L
								{
									OFFSET 0.101558 0.002910 0.009865
									CHANNELS 3 Xrotation Yrotation Zrotation
									JOINT Ring2.L
									{
										OFFSET 0.028893 0.000703 0.002384
										CHANNELS 3 Xrotation Yrotation Zrotation
										JOINT Ring3.L
										{
											OFFSET 0.019926 0.000485 0.001644
											CHANNELS 3 Xrotation Yrotation Zrotation
											End Site
											{
												OFFSET 0.016937 0.000412 0.001398
											}
										}
									}
								}
								JOINT Pinky1.L
								{
									OFFSET 0.085558 0.002910 0.009865
									CHANNELS 3 Xrotation Yrotation Zrotation
									JOINT Pinky2.L
									{
										OFFSET 0.023912 0.000582 0.001973
										CHANNELS 3 Xrotation Yrotation Zrotation
										JOINT Pinky3.L
										{
											OFFSET 0.016937 0.000412 0.001398
											CHANNELS 3 Xrotation Yrotation Zrotation
											End Site
											{
												OFFSET 0.013948 0.000339 0.001151
											}
										}
									}
								}
							}
						}
					}
				}
				JOINT Clavicle.R
				{
					OFFSET -0.041038 0.014616 0.082020
					CHANNELS 3 Xrotation Yrotation Zrotation
					JOINT UpperArm.R
					{
						OFFSET -0.089548 0.009796 0.055550
						CHANNELS 3 Xrotation Yrotation Zrotation
						JOINT ForeArm.R
						{
							OFFSET -0.272404 0.022336 -0.041419
							CHANNELS 3 Xrotation Yrotation Zrotation
							JOINT Hand.R
							{
								OFFSET -0.251711 0.018472 -0.003412
								CHANNELS 3 Xrotation Yrotation Zrotation
								JOINT Thumb1.R
								{
									OFFSET -0.154667 0.008782 -0.001622
									CHANNELS 3 Xrotation Yrotation Zrotation
									JOINT Thumb2.R
									{
										OFFSET -0.029917 0.002196 -0.000405
										CHANNELS 3 Xrotation Yrotation Zrotation
										End Site
										{
											OFFSET -0.024931 0.001830 -0.000338
										}
									}
								}
								JOINT Index1.R
								{
									OFFSET -0.137667 0.008782 -0.001622
									CHANNELS 3 Xrotation Yrotation Zrotation
									JOINT Index2.R
									{
										OFFSET -0.029917 0.002196 -0.000405
										CHANNELS 3 Xrotation Yrotation Zrotation
										JOINT Index3.R
										{
											OFFSET -0.021939 0.001610 -0.000297
											CHANNELS 3 Xrotation Yrotation Zrotation
											End Site
											{
												OFFSET -0.017950 0.001317 -0.000243
											}
										}
									}
								}
								JOINT Middle1.R
								{
									OFFSET -0.119667 0.008782 -0.001622
									CHANNELS 3 Xrotation Yrotation Zrotation
									JOINT Middle2.R
									{
										OFFSET -0.030914 0.002269 -0.000419
										CHANNELS 3 Xrotation Yrotation Zrotation
										JOINT Middle3.R
										{
											OFFSET -0.021939 0.001610 -0.000297
											CHANNELS 3 Xrotation Yrotation Zrotation
											End Site
											{
												OFFSET -0.017950 0.001317 -0.000243
											}
										}
									}
								}
								JOINT Ring1.R
								{
									OFFSET -0.101667 0.008782 -0.001622
									CHANNELS 3 Xrotation Yrotation Zrotation
									JOINT Ring2.R
									{
										OFFSET -0.028920 0.002122 -0.000392
										CHANNELS 3 Xrotation Yrotation Zrotation
										JOINT Ring3.R
										{
											OFFSET -0.019945 0.001464 -0.000270
											CHANNELS 3 Xrotation Yrotation Zrotation
											End Site
											{
												OFFSET -0.016953 0.001244 -0.000230
											}
										}
									}
								}
								JOINT Pinky1.R
								{
									OFFSET -0.085667 0.008782 -0.001622
									CHANNELS 3 Xrotation Yrotation Zrotation
									JOINT Pinky2.R
									{
										OFFSET -0.023933 0.001756 -0.000324
										CHANNELS 3 Xrotation Yrotation Zrotation
										JOINT Pinky3.R
										{
											OFFSET -0.016953 0.001244 -0.000230
											CHANNELS 3 Xrotation Yrotation Zrotation
											End Site
											{
												OFFSET -0.013961 0.001025 -0.000189
											}
										}
									}
								}
							}
						}
					}
				}
			}
		}
	}
}
MOTION
Frames: 8
Frame Time: 0.04166667
-0.015596 -0.023296 1.482885 3.395151 -0.163455 0.703339 -35.852722 -14.747077 2.986034 56.097762 15.832333 -1.223589 -17.107100 2.225369 1.494707 -3.548352 -9.375823 -1.508240 -37.789989 13.104877 -3.736789 59.135837 -16.190306 -2.251123 -14.393510 2.543584 2.120216 1.923483 -9.079449 0.003528 30.020024 -1.304122 1.916111 1.262389 -1.932171 -5.210242 -3.696842 0.644306 1.125634 -2.427378 3.873468 8.961211 5.602300 -0.576233 2.530379 -6.164394 7.891441 -17.456487 -0.438132 40.933150 -34.178669 -8.845500 1.643844 -39.358574 -32.763131 5.175266 -7.173204 0.000000 0.000000 0.000000 0.000000 0.000000 0.000000 0.000000 0.000000 0.000000 0.000000 0.000000 0.000000 0.000000 0.000000 0.000000 0.000000 0.000000 0.000000 0.000000 0.000000 0.000000 0.000000 0.000000 0.000000 0.000000 0.000000 0.000000 0.000000 0.000000 0.000000 0.000000 0.000000 0.000000 0.000000 0.000000 0.000000 0.000000 0.000000 0.000000 0.000000 0.000000 0.000000 -7.731313 -7.024444 15.699601 11.978804 -42.887782 37.372898 -10.595224 3.771891 52.445785 -24.002680 -12.426756 4.506732 0.000000 0.000000 0.000000 0.000000 0.000000 0.000000 0.000000 0.000000 0.000000 0.000000 0.000000 0.000000 0.000000 0.000000 0.000000 0.000000 0.000000 0.000000 0.000000 0.000000 0.000000 0.000000 0.000000 0.000000 0.000000 0.000000 0.000000 0.000000 0.000000 0.000000 0.000000 0.000000 0.000000 0.000000 0.000000 0.000000 0.000000 0.000000 0.000000 0.000000 0.000000 0.000000
-0.020539 -0.015953 1.509740 2.930799 0.077508 0.663454 -31.018886 -13.249485 3.563079 49.308627 14.664482 -0.058252 -15.587534 2.718519 2.790872 -3.229304 -9.192074 -1.242957 -32.810718 11.207224 -4.434897 51.532226 -14.515762 -3.593778 -12.277199 1.947539 0.571783 1.875860 -8.914126 -0.162507 27.633637 -1.178645 1.957097 1.410768 -1.825464 -5.141262 -3.324995 0.495515 0.996712 -2.015938 4.060776 8.424017 6.405546 -0.709317 2.979693 -5.859478 8.169218 -16.628293 0.966352 41.461813 -34.744848 -8.342527 2.171452 -38.577044 -34.312471 5.777408 -7.121288 0.000000 0.000000 0.000000 0.000000 0.000000 0.000000 0.000000 0.000000 0.000000 0.000000 0.000000 0.000000 0.000000 0.000000 0.000000 0.000000 0.000000 0.000000 0.000000 0.000000 0.000000 0.000000 0.000000 0.000000 0.000000 0.000000 0.000000 0.000000 0.000000 0.000000 0.000000 0.000000 0.000000 0.000000 0.000000 0.000000 0.000000 0.000000 0.000000 0.000000 0.000000 0.000000 -7.734644 -7.132096 14.974212 13.639941 -43.254176 37.379552 -10.365318 3.009073 52.297046 -25.258910 -12.423751 3.951072 0.000000 0.000000 0.000000 0.000000 0.000000 0.000000 0.000000 0.000000 0.000000 0.000000 0.000000 0.000000 0.000000 0.000000 0.000000 0.000000 0.000000 0.000000 0.000000 0.000000 0.000000 0.000000 0.000000 0.000000 0.000000 0.000000 0.000000 0.000000 0.000000 0.000000 0.000000 0.000000 0.000000 0.000000 0.000000 0.000000 0.000000 0.000000 0.000000 0.000000 0.000000 0.000000
-0.022051 -0.014185 1.534664 2.336623 0.375474 0.329715 -25.696876 -11.447261 3.964622 41.633118 12.739834 1.251705 -14.935910 2.692866 4.394634 -2.738120 -8.658025 -0.853764 -27.295840 8.942041 -5.071693 42.808013 -12.623964 -4.648572 -10.638344 1.266503 -0.560373 1.789760 -8.684519 -0.424499 25.129498 -1.044537 1.944258 1.369542 -1.635586 -4.921063 -2.858373 0.390341 0.790824 -1.511495 4.073328 7.600789 7.301313 -0.931910 3.546365 -5.552546 8.665069 -15.471159 2.474631 42.312238 -35.048897 -8.449239 2.862670 -37.913357 -37.273951 6.420663 -6.870095 0.000000 0.000000 0.000000 0.000000 0.000000 0.000000 0.000000 0.000000 0.000000 0.000000 0.000000 0.000000 0.000000 0.000000 0.000000 0.000000 0.000000 0.000000 0.000000 0.000000 0.000000 0.000000 0.000000 0.000000 0.000000 0.000000 0.000000 0.000000 0.000000 0.000000 0.000000 0.000000 0.000000 0.000000 0.000000 0.000000 0.000000 0.000000 0.000000 0.000000 0.000000 0.000000 -7.669888 -7.277681 14.226634 15.892621 -43.928380 37.630218 -10.284634 2.103464 52.101056 -26.658240 -12.309350 3.669030 0.000000 0.000000 0.000000 0.000000 0.000000 0.000000 0.000000 0.000000 0.000000 0.000000 0.000000 0.000000 0.000000 0.000000 0.000000 0.000000 0.000000 0.000000 0.000000 0.000000 0.000000 0.000000 0.000000 0.000000 0.000000 0.000000 0.000000 0.000000 0.000000 0.000000 0.000000 0.000000 0.000000 0.000000 0.000000 0.000000 0.000000 0.000000 0.000000 0.000000 0.000000 0.000000
-0.022859 -0.013427 1.556630 1.690512 0.510926 0.165701 -20.685497 -9.869936 4.570567 34.776279 11.002591 2.227701 -13.356191 3.027016 5.427899 -2.125724 -7.936527 -0.462525 -21.826696 7.161030 -5.708842 34.314800 -10.570247 -5.532378 -8.484914 0.333179 -1.283985 1.738855 -8.518620 -0.685503 22.834514 -0.885421 1.994414 1.566041 -1.581626 -4.798750 -2.715990 0.358234 0.626000 -0.843900 4.093176 6.663763 8.156387 -1.102638 3.471420 -5.096261 9.220101 -14.567512 3.668181 42.715870 -35.409539 -8.497887 3.488632 -36.587943 -39.504545 6.861541 -6.973359 0.000000 0.000000 0.000000 0.000000 0.000000 0.000000 0.000000 0.000000 0.000000 0.000000 0.000000 0.000000 0.000000 0.000000 0.000000 0.000000 0.000000 0.000000 0.000000 0.000000 0.000000 0.000000 0.000000 0.000000 0.000000 0.000000 0.000000 0.000000 0.000000 0.000000 0.000000 0.000000 0.000000 0.000000 0.000000 0.000000 0.000000 0.000000 0.000000 0.000000 0.000000 0.000000 -7.454012 -7.596264 13.419882 17.909693 -44.577980 37.635169 -10.003807 1.594679 52.276604 -28.216353 -12.093858 3.437540 0.000000 0.000000 0.000000 0.000000 0.000000 0.000000 0.000000 0.000000 0.000000 0.000000 0.000000 0.000000 0.000000 0.000000 0.000000 0.000000 0.000000 0.000000 0.000000 0.000000 0.000000 0.000000 0.000000 0.000000 0.000000 0.000000 0.000000 0.000000 0.000000 0.000000 0.000000 0.000000 0.000000 0.000000 0.000000 0.000000 0.000000 0.000000 0.000000 0.000000 0.000000 0.000000
-0.024909 -0.014859 1.575428 0.768382 0.810137 -0.073182 -15.530529 -8.116283 5.081287 27.701834 8.733514 3.094784 -11.736264 3.225021 6.792653 -1.339133 -7.119761 0.018911 -16.464078 5.321435 -5.975540 26.343390 -8.424599 -5.866115 -5.785798 -0.758248 -2.244738 1.675676 -8.074898 -0.982017 20.490955 -0.778052 1.931482 1.857299 -1.619672 -4.642891 -2.625714 0.412161 0.461101 0.003544 3.959996 5.951831 8.782721 -1.245126 3.981902 -4.513423 9.915225 -13.649921 4.748741 42.786730 -35.332574 -8.642185 4.208271 -35.358260 -41.104357 6.876193 -6.968023 0.000000 0.000000 0.000000 0.000000 0.000000 0.000000 0.000000 0.000000 0.000000 0.000000 0.000000 0.000000 0.000000 0.000000 0.000000 0.000000 0.000000 0.000000 0.000000 0.000000 0.000000 0.000000 0.000000 0.000000 0.000000 0.000000 0.000000 0.000000 0.000000 0.000000 0.000000 0.000000 0.000000 0.000000 0.000000 0.000000 0.000000 0.000000 0.000000 0.000000 0.000000 0.000000 -7.159175 -7.914660 12.757436 19.533467 -44.562534 37.424857 -9.711027 0.681863 52.432072 -30.070490 -11.761182 3.167071 0.000000 0.000000 0.000000 0.000000 0.000000 0.000000 0.000000 0.000000 0.000000 0.000000 0.000000 0.000000 0.000000 0.000000 0.000000 0.000000 0.000000 0.000000 0.000000 0.000000 0.000000 0.000000 0.000000 0.000000 0.000000 0.000000 0.000000 0.000000 0.000000 0.000000 0.000000 0.000000 0.000000 0.000000 0.000000 0.000000 0.000000 0.000000 0.000000 0.000000 0.000000 0.000000
-0.025966 -0.018400 1.590688 -0.463176 0.900709 -0.363742 -10.096441 -6.238474 5.426169 19.933005 6.394831 3.934551 -9.482951 3.414888 7.979273 -0.440536 -6.147774 0.570180 -11.209816 3.632136 -5.974631 18.839610 -6.073564 -5.770538 -2.804952 -1.728002 -3.450193 1.665274 -7.513716 -1.280981 18.008931 -0.571929 1.911408 2.340636 -1.747694 -4.531963 -2.604144 0.454348 0.261279 0.975202 3.853874 5.059130 9.231657 -1.270414 4.572427 -3.967607 10.464513 -12.623529 6.126161 43.084019 -35.600523 -8.849623 4.759459 -34.008031 -42.184596 7.603779 -6.860323 0.000000 0.000000 0.000000 0.000000 0.000000 0.000000 0.000000 0.000000 0.000000 0.000000 0.000000 0.000000 0.000000 0.000000 0.000000 0.000000 0.000000 0.000000 0.000000 0.000000 0.000000 0.000000 0.000000 0.000000 0.000000 0.000000 0.000000 0.000000 0.000000 0.000000 0.000000 0.000000 0.000000 0.000000 0.000000 0.000000 0.000000 0.000000 0.000000 0.000000 0.000000 0.000000 -6.770277 -8.081832 12.055683 21.130450 -44.669646 37.317550 -9.440724 -0.444950 52.434089 -31.996534 -12.192088 2.672280 0.000000 0.000000 0.000000 0.000000 0.000000 0.000000 0.000000 0.000000 0.000000 0.000000 0.000000 0.000000 0.000000 0.000000 0.000000 0.000000 0.000000 0.000000 0.000000 0.000000 0.000000 0.000000 0.000000 0.000000 0.000000 0.000000 0.000000 0.000000 0.000000 0.000000 0.000000 0.000000 0.000000 0.000000 0.000000 0.000000 0.000000 0.000000 0.000000 0.000000 0.000000 0.000000
-0.026262 -0.022298 1.602034 -1.719832 0.858520 -0.700521 -5.556778 -4.812313 5.756078 13.578169 4.555339 4.401227 -7.288885 3.908459 8.734983 0.226670 -5.498713 0.976853 -7.072961 2.444874 -5.799007 13.427174 -4.275378 -5.570053 -0.183021 -2.520669 -4.371431 1.704100 -7.059010 -1.485982 15.806077 -0.531799 1.785950 2.557796 -1.818047 -4.426461 -2.363840 0.529713 0.125054 1.428411 3.623047 4.422153 9.392421 -1.262292 4.802059 -3.555155 10.939689 -11.736662 7.266197 43.399494 -35.716188 -8.837913 5.257963 -33.311485 -42.321557 8.090530 -7.186267 0.000000 0.000000 0.000000 0.000000 0.000000 0.000000 0.000000 0.000000 0.000000 0.000000 0.000000 0.000000 0.000000 0.000000 0.000000 0.000000 0.000000 0.000000 0.000000 0.000000 0.000000 0.000000 0.000000 0.000000 0.000000 0.000000 0.000000 0.000000 0.000000 0.000000 0.000000 0.000000 0.000000 0.000000 0.000000 0.000000 0.000000 0.000000 0.000000 0.000000 0.000000 0.000000 -6.440024 -8.207939 11.458124 22.166231 -44.509664 36.906219 -8.662941 -1.264484 52.865617 -32.753500 -12.537032 2.656358 0.000000 0.000000 0.000000 0.000000 0.000000 0.000000 0.000000 0.000000 0.000000 0.000000 0.000000 0.000000 0.000000 0.000000 0.000000 0.000000 0.000000 0.000000 0.000000 0.000000 0.000000 0.000000 0.000000 0.000000 0.000000 0.000000 0.000000 0.000000 0.000000 0.000000 0.000000 0.000000 0.000000 0.000000 0.000000 0.000000 0.000000 0.000000 0.000000 0.000000 0.000000 0.000000
-0.026932 -0.024628 1.609987 -2.596203 0.863516 -1.091487 -2.157446 -3.695511 6.008559 8.668209 3.100171 4.694740 -5.499737 4.238959 9.259282 0.855634 -4.796772 1.311087 -4.196904 1.692966 -5.697329 9.611081 -3.071195 -5.269821 1.774429 -3.293051 -4.765745 1.715481 -6.605973 -1.675577 14.054082 -0.390128 1.744306 3.063429 -2.062953 -4.427365 -2.540796 0.636978 0.057125 2.153004 3.428100 4.045117 9.509766 -1.205701 5.080454 -3.216531 11.271782 -11.133440 8.228003 43.367283 -35.661470 -9.015158 5.700465 -32.951689 -42.373359 8.372517 -7.400173 0.000000 0.000000 0.000000 0.000000 0.000000 0.000000 0.000000 0.000000 0.000000 0.000000 0.000000 0.000000 0.000000 0.000000 0.000000 0.000000 0.000000 0.000000 0.000000 0.000000 0.000000 0.000000 0.000000 0.000000 0.000000 0.000000 0.000000 0.000000 0.000000 0.000000 0.000000 0.000000 0.000000 0.000000 0.000000 0.000000 0.000000 0.000000 0.000000 0.000000 0.000000 0.000000 -6.210300 -8.358612 11.031226 23.089931 -44.206532 36.594692 -8.251709 -1.927162 53.456161 -33.419417 -12.785741 2.748677 0.000000 0.000000 0.000000 0.000000 0.000000 0.000000 0.000000 0.000000 0.000000 0.000000 0.000000 0.000000 0.000000 0.000000 0.000000 0.000000 0.000000 0.000000 0.000000 0.000000 0.000000 0.000000 0.000000 0.000000 0.000000 0.000000 0.000000 0.000000 0.000000 0.000000 0.000000 0.000000 0.000000 0.000000 0.000000 0.000000 0.000000 0.000000 0.000000 0.000000 0.000000 0.000000
